<mxfile host="app.diagrams.net" modified="2020-06-18T16:24:55.293Z" agent="5.0 (Macintosh; Intel Mac OS X 10_13_6) AppleWebKit/537.36 (KHTML, like Gecko) Chrome/83.0.4103.61 Safari/537.36" etag="KD1EIncR2wEnZ9dGZAGC" version="13.2.6" type="github">
  <diagram id="_Mz3SnQgXu14oQmue48i" name="Page-1">
    <mxGraphModel dx="905" dy="575" grid="1" gridSize="10" guides="1" tooltips="1" connect="1" arrows="1" fold="1" page="1" pageScale="1" pageWidth="850" pageHeight="1100" math="0" shadow="0">
      <root>
        <mxCell id="0" />
        <mxCell id="1" parent="0" />
        <UserObject label="" lucidchartObjectId="Yu5M4GIAFP0a" id="sXOGlu0_dmIV4x35FgpF-1">
          <mxCell style="html=1;jettySize=18;fontSize=11;strokeColor=#333333;strokeOpacity=100;dashed=1;dashPattern=16 6;rounded=0;startArrow=none;;endArrow=none;;exitX=0.5;exitY=1;exitPerimeter=1;" parent="1" source="sXOGlu0_dmIV4x35FgpF-9" edge="1">
            <mxGeometry width="100" height="100" relative="1" as="geometry">
              <Array as="points" />
              <mxPoint x="261" y="741" as="targetPoint" />
            </mxGeometry>
          </mxCell>
        </UserObject>
        <UserObject label="" lucidchartObjectId="Yu5MhR-oMSno" id="sXOGlu0_dmIV4x35FgpF-2">
          <mxCell style="html=1;whiteSpace=wrap;;fontSize=11;spacing=0;strokeColor=#f2f2f2;strokeOpacity=100;fillOpacity=100;rounded=1;absoluteArcSize=1;arcSize=9.6;fillColor=#ced4db;" parent="1" vertex="1">
            <mxGeometry x="250" y="246" width="24" height="474" as="geometry" />
          </mxCell>
        </UserObject>
        <UserObject label="" lucidchartObjectId="Yu5MXQ6BOCr2" id="sXOGlu0_dmIV4x35FgpF-3">
          <mxCell style="html=1;jettySize=18;fontSize=11;strokeColor=#333333;strokeOpacity=100;dashed=1;dashPattern=16 6;rounded=1;arcSize=24;edgeStyle=elbowEdgeStyle;startArrow=none;;endArrow=none;;exitX=0.5;exitY=1;exitPerimeter=1;" parent="1" source="sXOGlu0_dmIV4x35FgpF-10" edge="1">
            <mxGeometry width="100" height="100" relative="1" as="geometry">
              <Array as="points" />
              <mxPoint x="438" y="697" as="targetPoint" />
            </mxGeometry>
          </mxCell>
        </UserObject>
        <UserObject label="" lucidchartObjectId="Yu5MsRc69goB" id="sXOGlu0_dmIV4x35FgpF-4">
          <mxCell style="html=1;whiteSpace=wrap;;fontSize=11;spacing=0;strokeColor=#f2f2f2;strokeOpacity=100;fillOpacity=100;rounded=1;absoluteArcSize=1;arcSize=9.6;fillColor=#ced4db;" parent="1" vertex="1">
            <mxGeometry x="427" y="324" width="24" height="60" as="geometry" />
          </mxCell>
        </UserObject>
        <UserObject label="" lucidchartObjectId="Yu5M5Qxgzhy9" id="sXOGlu0_dmIV4x35FgpF-5">
          <mxCell style="html=1;jettySize=18;fontSize=11;strokeColor=#333333;strokeOpacity=100;dashed=1;dashPattern=16 6;rounded=1;arcSize=24;edgeStyle=elbowEdgeStyle;startArrow=none;;endArrow=none;;exitX=0.5;exitY=1;exitPerimeter=1;" parent="1" source="sXOGlu0_dmIV4x35FgpF-11" edge="1">
            <mxGeometry width="100" height="100" relative="1" as="geometry">
              <Array as="points" />
              <mxPoint x="605" y="697" as="targetPoint" />
            </mxGeometry>
          </mxCell>
        </UserObject>
        <UserObject label="" lucidchartObjectId="Yu5MydJHa4al" id="sXOGlu0_dmIV4x35FgpF-6">
          <mxCell style="html=1;whiteSpace=wrap;;fontSize=11;spacing=0;strokeColor=#f2f2f2;strokeOpacity=100;fillOpacity=100;rounded=1;absoluteArcSize=1;arcSize=9.6;fillColor=#ced4db;" parent="1" vertex="1">
            <mxGeometry x="593" y="414" width="24" height="72" as="geometry" />
          </mxCell>
        </UserObject>
        <UserObject label="" lucidchartObjectId="Yu5MB3FtIlV_" id="sXOGlu0_dmIV4x35FgpF-7">
          <mxCell style="html=1;jettySize=18;fontSize=11;strokeColor=#333333;strokeOpacity=100;rounded=0;startArrow=none;;endArrow=block;endFill=1;;exitX=1.0125;exitY=0.39314006912338506;exitPerimeter=1;entryX=-0.0125;entryY=0.25000000000000655;entryPerimeter=1;" parent="1" source="sXOGlu0_dmIV4x35FgpF-2" target="sXOGlu0_dmIV4x35FgpF-6" edge="1">
            <mxGeometry width="100" height="100" relative="1" as="geometry">
              <Array as="points" />
            </mxGeometry>
          </mxCell>
        </UserObject>
        <mxCell id="sXOGlu0_dmIV4x35FgpF-8" value="mapRequest toProvierRequst" style="text;html=1;resizable=0;labelBackgroundColor=#ffffff;align=center;verticalAlign=middle;fontColor=#333333;;fontSize=11;" parent="sXOGlu0_dmIV4x35FgpF-7" vertex="1">
          <mxGeometry relative="1" as="geometry" />
        </mxCell>
        <mxCell id="sXOGlu0_dmIV4x35FgpF-9" value="RAtesShip" style="html=1;whiteSpace=wrap;fontSize=11;fontColor=#333333;fontStyle=6;align=center;spacing=0;strokeOpacity=0;fillOpacity=100;rounded=1;absoluteArcSize=1;arcSize=9.6;fillColor=#ffaf28;" parent="1" vertex="1">
          <mxGeometry x="204" y="132" width="114" height="73" as="geometry" />
        </mxCell>
        <mxCell id="sXOGlu0_dmIV4x35FgpF-10" value="Config " style="html=1;whiteSpace=wrap;fontSize=11;fontColor=#333333;fontStyle=6;align=center;spacing=0;strokeOpacity=0;fillOpacity=100;rounded=1;absoluteArcSize=1;arcSize=9.6;fillColor=#ffcc78;" parent="1" vertex="1">
          <mxGeometry x="381" y="132" width="114" height="73" as="geometry" />
        </mxCell>
        <mxCell id="sXOGlu0_dmIV4x35FgpF-11" value="mapper" style="html=1;whiteSpace=wrap;fontSize=11;fontColor=#333333;fontStyle=6;align=center;spacing=0;strokeOpacity=0;fillOpacity=100;rounded=1;absoluteArcSize=1;arcSize=9.6;fillColor=#ffe6be;" parent="1" vertex="1">
          <mxGeometry x="548" y="132" width="114" height="73" as="geometry" />
        </mxCell>
        <UserObject label="Actor" lucidchartObjectId="Yu5MdgyV5tNR" id="sXOGlu0_dmIV4x35FgpF-12">
          <mxCell style="html=1;whiteSpace=wrap;shape=umlActor;labelPosition=center;verticalLabelPosition=bottom;verticalAlign=top;whiteSpace=nowrap;fontSize=11;fontColor=#333333;fontStyle=2;align=center;spacing=0;strokeColor=#333333;strokeOpacity=100;fillOpacity=100;rounded=1;absoluteArcSize=1;arcSize=9.6;fillColor=#ffffff;" parent="1" vertex="1">
            <mxGeometry x="48" y="155" width="48" height="108" as="geometry" />
          </mxCell>
        </UserObject>
        <UserObject label="" lucidchartObjectId="Yu5Migy3NWk_" id="sXOGlu0_dmIV4x35FgpF-13">
          <mxCell style="html=1;jettySize=18;fontSize=11;strokeColor=#333333;strokeOpacity=100;dashed=1;dashPattern=16 6;rounded=1;arcSize=10;edgeStyle=elbowEdgeStyle;startArrow=none;;endArrow=none;;exitX=0.5;exitY=0.5318607397371701;exitPerimeter=1;" parent="1" source="sXOGlu0_dmIV4x35FgpF-12" edge="1">
            <mxGeometry width="100" height="100" relative="1" as="geometry">
              <Array as="points" />
              <mxPoint x="72" y="768" as="targetPoint" />
            </mxGeometry>
          </mxCell>
        </UserObject>
        <mxCell id="sXOGlu0_dmIV4x35FgpF-14" value="Text" style="text;html=1;resizable=0;labelBackgroundColor=#ffffff;align=center;verticalAlign=middle;fontColor=#333333;;fontSize=11;" parent="sXOGlu0_dmIV4x35FgpF-13" vertex="1">
          <mxGeometry x="-0.8298097380664047" relative="1" as="geometry" />
        </mxCell>
        <mxCell id="sXOGlu0_dmIV4x35FgpF-15" value="MyShip or Atlas" style="text;html=1;resizable=0;labelBackgroundColor=#ffffff;align=center;verticalAlign=middle;fontColor=#333333;;fontSize=11;" parent="sXOGlu0_dmIV4x35FgpF-13" vertex="1">
          <mxGeometry x="-0.8667072679366453" relative="1" as="geometry" />
        </mxCell>
        <UserObject label="" lucidchartObjectId="Yu5M0A2JVvTe" id="sXOGlu0_dmIV4x35FgpF-16">
          <mxCell style="html=1;jettySize=18;fontSize=11;strokeColor=#333333;strokeOpacity=100;rounded=1;arcSize=10;edgeStyle=elbowEdgeStyle;startArrow=none;;endArrow=block;endFill=1;;entryX=-0.0125;entryY=0.1087435301618218;entryPerimeter=1;" parent="1" target="sXOGlu0_dmIV4x35FgpF-2" edge="1">
            <mxGeometry width="100" height="100" relative="1" as="geometry">
              <Array as="points" />
              <mxPoint x="74" y="297" as="sourcePoint" />
            </mxGeometry>
          </mxCell>
        </UserObject>
        <mxCell id="sXOGlu0_dmIV4x35FgpF-17" value="shipPackage" style="text;html=1;resizable=0;labelBackgroundColor=#ffffff;align=center;verticalAlign=middle;fontStyle=2;fontColor=#333333;;fontSize=10.666666666666666;" parent="sXOGlu0_dmIV4x35FgpF-16" vertex="1">
          <mxGeometry relative="1" as="geometry" />
        </mxCell>
        <UserObject label="" lucidchartObjectId="Yu5Mzc~oVNZ4" id="sXOGlu0_dmIV4x35FgpF-18">
          <mxCell style="html=1;jettySize=18;fontSize=11;strokeColor=#333333;strokeOpacity=100;dashed=1;dashPattern=16 6;rounded=1;arcSize=10;edgeStyle=orthogonalEdgeStyle;startArrow=none;;endArrow=block;endFill=1;;exitX=-0.01250000000000009;exitY=0.7416573772974401;exitPerimeter=1;entryX=1.0125;entryY=0.4677965598859917;entryPerimeter=1;" parent="1" source="sXOGlu0_dmIV4x35FgpF-6" target="sXOGlu0_dmIV4x35FgpF-2" edge="1">
            <mxGeometry width="100" height="100" relative="1" as="geometry">
              <Array as="points" />
            </mxGeometry>
          </mxCell>
        </UserObject>
        <UserObject label="" lucidchartObjectId="Yu5M8hheeUyh" id="sXOGlu0_dmIV4x35FgpF-19">
          <mxCell style="html=1;jettySize=18;fontSize=11;strokeColor=#333333;strokeOpacity=100;rounded=1;arcSize=10;edgeStyle=elbowEdgeStyle;startArrow=none;;endArrow=block;endFill=1;;exitX=1.0125;exitY=0.18918757191954372;exitPerimeter=1;" parent="1" source="sXOGlu0_dmIV4x35FgpF-2" edge="1">
            <mxGeometry width="100" height="100" relative="1" as="geometry">
              <Array as="points" />
              <mxPoint x="438" y="336" as="targetPoint" />
            </mxGeometry>
          </mxCell>
        </UserObject>
        <mxCell id="sXOGlu0_dmIV4x35FgpF-20" value="fetchProviderConfig" style="text;html=1;resizable=0;labelBackgroundColor=#ffffff;align=center;verticalAlign=middle;fontStyle=2;fontColor=#333333;;fontSize=10.666666666666666;" parent="sXOGlu0_dmIV4x35FgpF-19" vertex="1">
          <mxGeometry relative="1" as="geometry" />
        </mxCell>
        <UserObject label="" lucidchartObjectId="3Hx8h79YTMxV" id="sXOGlu0_dmIV4x35FgpF-21">
          <mxCell style="html=1;jettySize=18;fontSize=11;strokeColor=#333333;strokeOpacity=100;dashed=1;dashPattern=16 6;rounded=1;arcSize=24;edgeStyle=elbowEdgeStyle;startArrow=none;;endArrow=none;;exitX=0.5;exitY=1;exitPerimeter=1;" parent="1" source="sXOGlu0_dmIV4x35FgpF-22" edge="1">
            <mxGeometry width="100" height="100" relative="1" as="geometry">
              <Array as="points" />
              <mxPoint x="765" y="697" as="targetPoint" />
            </mxGeometry>
          </mxCell>
        </UserObject>
        <mxCell id="sXOGlu0_dmIV4x35FgpF-22" value="providerAPI" style="html=1;whiteSpace=wrap;fontSize=11;fontColor=#333333;fontStyle=6;align=center;spacing=0;strokeOpacity=0;fillOpacity=100;rounded=1;absoluteArcSize=1;arcSize=9.6;fillColor=#ffe6be;" parent="1" vertex="1">
          <mxGeometry x="708" y="132" width="114" height="73" as="geometry" />
        </mxCell>
        <UserObject label="" lucidchartObjectId="1Lx8Dg0piY2j" id="sXOGlu0_dmIV4x35FgpF-23">
          <mxCell style="html=1;jettySize=18;fontSize=11;strokeColor=#333333;strokeOpacity=100;dashed=1;dashPattern=16 6;rounded=1;arcSize=24;edgeStyle=orthogonalEdgeStyle;startArrow=none;;endArrow=block;endFill=1;;exitX=-0.01250000000000009;exitY=0.5;exitPerimeter=1;entryX=1.0125;entryY=0.22811322362469982;entryPerimeter=1;" parent="1" source="sXOGlu0_dmIV4x35FgpF-4" target="sXOGlu0_dmIV4x35FgpF-2" edge="1">
            <mxGeometry width="100" height="100" relative="1" as="geometry">
              <Array as="points" />
            </mxGeometry>
          </mxCell>
        </UserObject>
        <UserObject label="" lucidchartObjectId="NNx8KcqR03Ii" id="sXOGlu0_dmIV4x35FgpF-24">
          <mxCell style="html=1;jettySize=18;fontSize=11;strokeColor=#333333;strokeOpacity=100;dashed=1;dashPattern=16 6;rounded=1;arcSize=24;edgeStyle=elbowEdgeStyle;startArrow=none;;endArrow=none;;exitX=0.5;exitY=1;exitPerimeter=1;" parent="1" source="sXOGlu0_dmIV4x35FgpF-25" edge="1">
            <mxGeometry width="100" height="100" relative="1" as="geometry">
              <Array as="points" />
              <mxPoint x="933" y="697" as="targetPoint" />
            </mxGeometry>
          </mxCell>
        </UserObject>
        <mxCell id="sXOGlu0_dmIV4x35FgpF-25" value="shipping--DB" style="html=1;whiteSpace=wrap;fontSize=11;fontColor=#333333;fontStyle=6;align=center;spacing=0;strokeOpacity=0;fillOpacity=100;rounded=1;absoluteArcSize=1;arcSize=9.6;fillColor=#ffe6be;" parent="1" vertex="1">
          <mxGeometry x="876" y="132" width="114" height="73" as="geometry" />
        </mxCell>
        <UserObject label="" lucidchartObjectId="~Nx8sQuPPGFD" id="sXOGlu0_dmIV4x35FgpF-26">
          <mxCell style="html=1;jettySize=18;fontSize=11;strokeColor=#333333;strokeOpacity=100;rounded=1;arcSize=24;edgeStyle=orthogonalEdgeStyle;startArrow=none;;endArrow=block;endFill=1;;exitX=1.0125;exitY=0.6403552172492535;exitPerimeter=1;entryX=-0.0125;entryY=0.39845024469820567;entryPerimeter=1;" parent="1" source="sXOGlu0_dmIV4x35FgpF-2" target="sXOGlu0_dmIV4x35FgpF-28" edge="1">
            <mxGeometry width="100" height="100" relative="1" as="geometry">
              <Array as="points" />
            </mxGeometry>
          </mxCell>
        </UserObject>
        <mxCell id="sXOGlu0_dmIV4x35FgpF-27" value="Shiip Carton With PRovider" style="text;html=1;resizable=0;labelBackgroundColor=#ffffff;align=center;verticalAlign=middle;fontColor=#333333;;fontSize=11;" parent="sXOGlu0_dmIV4x35FgpF-26" vertex="1">
          <mxGeometry relative="1" as="geometry" />
        </mxCell>
        <UserObject label="" lucidchartObjectId="gOx8EXGsdsUX" id="sXOGlu0_dmIV4x35FgpF-28">
          <mxCell style="html=1;whiteSpace=wrap;;fontSize=11;spacing=0;strokeColor=#f2f2f2;strokeOpacity=100;fillOpacity=100;rounded=1;absoluteArcSize=1;arcSize=9.6;fillColor=#ced4db;" parent="1" vertex="1">
            <mxGeometry x="756" y="516" width="24" height="84" as="geometry" />
          </mxCell>
        </UserObject>
        <UserObject label="" lucidchartObjectId="AOx8GpTdA~nb" id="sXOGlu0_dmIV4x35FgpF-29">
          <mxCell style="html=1;jettySize=18;fontSize=11;strokeColor=#333333;strokeOpacity=100;dashed=1;dashPattern=16 6;rounded=1;arcSize=24;edgeStyle=orthogonalEdgeStyle;startArrow=none;;endArrow=block;endFill=1;;exitX=-0.0125;exitY=0.7298764856676769;exitPerimeter=1;entryX=1.0125;entryY=0.6990688149291476;entryPerimeter=1;" parent="1" source="sXOGlu0_dmIV4x35FgpF-28" target="sXOGlu0_dmIV4x35FgpF-2" edge="1">
            <mxGeometry width="100" height="100" relative="1" as="geometry">
              <Array as="points" />
            </mxGeometry>
          </mxCell>
        </UserObject>
        <UserObject label="" lucidchartObjectId="hPx8eZjXOowJ" id="sXOGlu0_dmIV4x35FgpF-30">
          <mxCell style="html=1;jettySize=18;fontSize=11;strokeColor=#333333;strokeOpacity=100;rounded=1;arcSize=24;edgeStyle=orthogonalEdgeStyle;startArrow=none;;endArrow=block;endFill=1;;exitX=1.0125;exitY=0.8175095593681745;exitPerimeter=1;entryX=-0.0125;entryY=0.4648586188145733;entryPerimeter=1;" parent="1" source="sXOGlu0_dmIV4x35FgpF-2" target="sXOGlu0_dmIV4x35FgpF-32" edge="1">
            <mxGeometry width="100" height="100" relative="1" as="geometry">
              <Array as="points" />
            </mxGeometry>
          </mxCell>
        </UserObject>
        <mxCell id="sXOGlu0_dmIV4x35FgpF-31" value="Save PRovider Reference" style="text;html=1;resizable=0;labelBackgroundColor=#ffffff;align=center;verticalAlign=middle;fontColor=#333333;;fontSize=11;" parent="sXOGlu0_dmIV4x35FgpF-30" vertex="1">
          <mxGeometry relative="1" as="geometry" />
        </mxCell>
        <UserObject label="" lucidchartObjectId="hPx8YJbq-lKu" id="sXOGlu0_dmIV4x35FgpF-32">
          <mxCell style="html=1;whiteSpace=wrap;;fontSize=11;spacing=0;strokeColor=#f2f2f2;strokeOpacity=100;fillOpacity=100;rounded=1;absoluteArcSize=1;arcSize=9.6;fillColor=#ced4db;" parent="1" vertex="1">
            <mxGeometry x="926" y="600" width="24" height="72" as="geometry" />
          </mxCell>
        </UserObject>
        <UserObject label="" lucidchartObjectId="hPx8ilGUa5tW" id="sXOGlu0_dmIV4x35FgpF-33">
          <mxCell style="html=1;jettySize=18;fontSize=11;strokeColor=#333333;strokeOpacity=100;dashed=1;dashPattern=16 6;rounded=1;arcSize=24;edgeStyle=orthogonalEdgeStyle;startArrow=none;;endArrow=block;endFill=1;;exitX=-0.0125;exitY=0.8515225666122888;exitPerimeter=1;entryX=1.0125;entryY=0.8762231570480681;entryPerimeter=1;" parent="1" source="sXOGlu0_dmIV4x35FgpF-32" target="sXOGlu0_dmIV4x35FgpF-2" edge="1">
            <mxGeometry width="100" height="100" relative="1" as="geometry">
              <Array as="points" />
            </mxGeometry>
          </mxCell>
        </UserObject>
        <UserObject label="" lucidchartObjectId="3Qx8AOut9_Rq" id="sXOGlu0_dmIV4x35FgpF-34">
          <mxCell style="html=1;jettySize=18;fontSize=11;strokeColor=#333333;strokeOpacity=100;dashed=1;dashPattern=16 6;rounded=1;arcSize=24;edgeStyle=elbowEdgeStyle;startArrow=none;;endArrow=block;endFill=1;;exitX=-0.01249999999999991;exitY=0.9462839630550155;exitPerimeter=1;" parent="1" source="sXOGlu0_dmIV4x35FgpF-2" edge="1">
            <mxGeometry width="100" height="100" relative="1" as="geometry">
              <Array as="points" />
              <mxPoint x="72" y="695" as="targetPoint" />
            </mxGeometry>
          </mxCell>
        </UserObject>
        <mxCell id="sXOGlu0_dmIV4x35FgpF-35" value="ShipResponse" style="text;html=1;resizable=0;labelBackgroundColor=#ffffff;align=center;verticalAlign=middle;fontColor=#333333;;fontSize=11;" parent="sXOGlu0_dmIV4x35FgpF-34" vertex="1">
          <mxGeometry relative="1" as="geometry" />
        </mxCell>
      </root>
    </mxGraphModel>
  </diagram>
</mxfile>
